<svg xmlns="http://www.w3.org/2000/svg" viewBox="0 0 100 100"><path d="m50 0c-2.9 0-5.7 0.3-8.5 0.7l-1.3 14.2c-2.8 0.8-5.5 1.9-8.1 3.3l-11-9.1c-4.6 3.3-8.7 7.3-12 12l9.1 11c-1.4 2.5-2.6 5.2-3.3 8.1l-14.2 1.4c-0.5 2.8-0.7 5.6-0.7 8.5 0 2.9 0.3 5.7 0.7 8.5l14.2 1.3c0.8 2.8 1.9 5.5 3.3 8.1l-9.1 11c3.3 4.6 7.3 8.7 11.9 12l11-9.1c2.5 1.4 5.2 2.6 8.1 3.3l1.3 14.2c2.8 0.5 5.6 0.7 8.5 0.7 2.9 0 5.7-0.2 8.4-0.7l1.3-14.2c2.8-0.8 5.5-1.9 8.1-3.3l11 9.1c4.6-3.3 8.7-7.3 11.9-12l-9.1-11c1.4-2.5 2.6-5.2 3.3-8.1l14.2-1.3c0.5-2.8 0.7-5.6 0.7-8.5 0-2.9-0.3-5.7-0.7-8.5l-14.2-1.3c-0.8-2.8-1.9-5.5-3.3-8.1l9.1-11c-3.3-4.6-7.3-8.7-12-12l-11 9.1c-2.5-1.4-5.2-2.5-8.1-3.3l-1.3-14.2c-2.8-0.5-5.6-0.7-8.4-0.7zm0 31c10.5 0 19 8.5 19 19s-8.5 19-19 19c-10.5 0-19-8.5-19-19s8.5-19 19-19z"/></svg>